<?xml version="1.0" encoding="UTF-8" standalone="no"?>
<svg
   xmlns:dc="http://purl.org/dc/elements/1.1/"
   xmlns:cc="http://creativecommons.org/ns#"
   xmlns:rdf="http://www.w3.org/1999/02/22-rdf-syntax-ns#"
   xmlns:svg="http://www.w3.org/2000/svg"
   xmlns="http://www.w3.org/2000/svg"
   xmlns:sodipodi="http://sodipodi.sourceforge.net/DTD/sodipodi-0.dtd"
   xmlns:inkscape="http://www.inkscape.org/namespaces/inkscape"
   width="1920"
   height="1080"
   viewBox="0 0 508 285.75"
   version="1.1"
   id="svg8"
   inkscape:version="1.0.1 (3bc2e813f5, 2020-09-07)"
   sodipodi:docname="title2.svg.2020_09_21_13_10_36.0.svg">
  <defs
     id="defs2">
    <inkscape:path-effect
       effect="spiro"
       id="path-effect3780"
       is_visible="true"
       lpeversion="1" />
    <inkscape:path-effect
       effect="spiro"
       id="path-effect3757"
       is_visible="true"
       lpeversion="1" />
    <inkscape:path-effect
       effect="spiro"
       id="path-effect3257"
       is_visible="true"
       lpeversion="1" />
    <rect
       x="196.17583"
       y="198.58126"
       width="57.195679"
       height="16.036172"
       id="rect992" />
    <inkscape:path-effect
       effect="spiro"
       id="path-effect886" />
    <inkscape:path-effect
       effect="spiro"
       id="path-effect2887"
       is_visible="true"
       lpeversion="1" />
    <rect
       x="105.07738"
       y="190.5"
       width="215.8244"
       height="55.184524"
       id="rect2493" />
    <rect
       x="182.94048"
       y="199.9494"
       width="129.64583"
       height="37.041667"
       id="rect2293" />
    <rect
       x="381.37798"
       y="98.27381"
       width="52.916667"
       height="46.869048"
       id="rect2175" />
    <rect
       x="376.84226"
       y="96.005952"
       width="61.988095"
       height="45.735119"
       id="rect2169" />
    <rect
       x="327.70536"
       y="57.452381"
       width="128.5119"
       height="26.080357"
       id="rect2035" />
    <rect
       x="87.129866"
       y="88.198944"
       width="290.44273"
       height="88.540841"
       id="rect38" />
    <rect
       x="161.96533"
       y="90.871639"
       width="162.49987"
       height="27.796031"
       id="rect24" />
    <rect
       x="96.751569"
       y="68.420999"
       width="196.17583"
       height="50.78121"
       id="rect18" />
    <rect
       x="87.129868"
       y="88.198944"
       width="125.98673"
       height="64.395443"
       id="rect38-0" />
    <rect
       x="87.129868"
       y="88.198944"
       width="308.96356"
       height="54.522984"
       id="rect2048" />
  </defs>
  <sodipodi:namedview
     id="base"
     pagecolor="#ffffff"
     bordercolor="#666666"
     borderopacity="1.0"
     inkscape:pageopacity="0.0"
     inkscape:pageshadow="2"
     inkscape:zoom="0.98994949"
     inkscape:cx="738.82079"
     inkscape:cy="350.31329"
     inkscape:document-units="mm"
     inkscape:current-layer="layer1"
     inkscape:document-rotation="0"
     showgrid="false"
     inkscape:window-width="1920"
     inkscape:window-height="1017"
     inkscape:window-x="1912"
     inkscape:window-y="-8"
     inkscape:window-maximized="1"
     inkscape:snap-text-baseline="false"
     units="px"
     inkscape:snap-global="true" />
  <metadata
     id="metadata5">
    <rdf:RDF>
      <cc:Work
         rdf:about="">
        <dc:format>image/svg+xml</dc:format>
        <dc:type
           rdf:resource="http://purl.org/dc/dcmitype/StillImage" />
        <dc:title />
      </cc:Work>
    </rdf:RDF>
  </metadata>
  <g
     inkscape:label="レイヤー 1"
     inkscape:groupmode="layer"
     id="layer1"
     style="display:inline">
    <text
       xml:space="preserve"
       id="text16"
       style="font-style:normal;font-variant:normal;font-weight:normal;font-stretch:normal;font-size:10.5833px;line-height:1.25;font-family:'MS Mincho';-inkscape-font-specification:'MS Mincho';white-space:pre;shape-inside:url(#rect18);fill:#000000;fill-opacity:1;stroke:none;" />
    <text
       xml:space="preserve"
       id="text22"
       style="font-style:normal;font-weight:normal;font-size:10.5833px;line-height:1.25;font-family:sans-serif;white-space:pre;shape-inside:url(#rect24);fill:#000000;fill-opacity:1;stroke:none;" />
    <text
       xml:space="preserve"
       style="font-style:normal;font-weight:normal;font-size:10.5833px;line-height:1.25;font-family:sans-serif;fill:#000000;fill-opacity:1;stroke:none;stroke-width:0.264583"
       x="217.55739"
       y="99.424271"
       id="text30"><tspan
         sodipodi:role="line"
         id="tspan28"
         x="217.55739"
         y="99.424271"
         style="stroke-width:0.264583" /></text>
    <text
       xml:space="preserve"
       style="font-style:normal;font-weight:normal;font-size:10.5833px;line-height:1.25;font-family:sans-serif;fill:#000000;fill-opacity:1;stroke:none;stroke-width:0.264583"
       x="261.92413"
       y="102.09695"
       id="text34"><tspan
         sodipodi:role="line"
         id="tspan32"
         x="261.92413"
         y="102.09695"
         style="stroke-width:0.264583" /></text>
    <text
       xml:space="preserve"
       style="font-style:normal;font-weight:normal;font-size:10.5833px;line-height:1.25;font-family:sans-serif;fill:#000000;fill-opacity:1;stroke:none;stroke-width:0.264583"
       x="19.654762"
       y="83.532738"
       id="text2031"><tspan
         sodipodi:role="line"
         id="tspan2029"
         x="19.654762"
         y="83.532738"
         style="stroke-width:0.264583" /></text>
    <text
       xml:space="preserve"
       id="text2033"
       style="fill:black;fill-opacity:1;line-height:1.25;stroke:none;font-family:sans-serif;font-style:normal;font-weight:normal;font-size:10.58333333px;white-space:pre;shape-inside:url(#rect2035);" />
    <text
       xml:space="preserve"
       id="text2167"
       style="fill:black;fill-opacity:1;line-height:1.25;stroke:none;font-family:sans-serif;font-style:normal;font-weight:normal;font-size:10.58333333px;white-space:pre;shape-inside:url(#rect2169);" />
    <text
       xml:space="preserve"
       id="text2173"
       style="fill:black;fill-opacity:1;line-height:1.25;stroke:none;font-family:sans-serif;font-style:normal;font-weight:normal;font-size:10.58333333px;white-space:pre;shape-inside:url(#rect2175);" />
    <text
       xml:space="preserve"
       id="text2291"
       style="font-size:10.5833px;line-height:1.25;font-family:sans-serif;letter-spacing:0px;white-space:pre;shape-inside:url(#rect2293);" />
    <text
       xml:space="preserve"
       style="font-size:10.5833px;line-height:1.25;font-family:sans-serif;letter-spacing:0px;stroke-width:0.264583"
       x="212.42261"
       y="209.77678"
       id="text2299"><tspan
         sodipodi:role="line"
         x="212.42261"
         y="209.77678"
         style="stroke-width:0.264583"
         id="tspan2301" /></text>
    <text
       xml:space="preserve"
       id="text2491"
       style="font-size:10.5833px;line-height:1;font-family:sans-serif;letter-spacing:0px;white-space:pre;shape-inside:url(#rect2493);" />
    <text
       xml:space="preserve"
       style="font-size:10.5833px;line-height:1.25;font-family:sans-serif;letter-spacing:0px;stroke-width:0.264583"
       x="379.48807"
       y="198.05951"
       id="text2499"><tspan
         sodipodi:role="line"
         x="379.48807"
         y="198.05951"
         style="stroke-width:0.264583"
         id="tspan2501" /></text>
    <text
       xml:space="preserve"
       style="font-size:10.5833px;line-height:1.25;font-family:sans-serif;letter-spacing:0px;stroke-width:0.264583"
       x="197.68155"
       y="193.90178"
       id="text2507"><tspan
         sodipodi:role="line"
         id="tspan2505"
         x="197.68155"
         y="193.90178"
         style="stroke-width:0.264583" /><tspan
         sodipodi:role="line"
         x="197.68155"
         y="207.13091"
         style="stroke-width:0.264583"
         id="tspan2511" /><tspan
         sodipodi:role="line"
         x="197.68155"
         y="220.36003"
         style="stroke-width:0.264583"
         id="tspan2509" /></text>
    <g
       aria-label="リソウノ"
       id="text2515"
       style="font-size:10.5833px;line-height:1.25;font-family:sans-serif;letter-spacing:0px;stroke-width:0.264583">
      <path
         d="m 144.09653,111.02167 q 0,-1.6881 -0.96463,-2.65272 -0.96463,-0.96463 -2.89388,-1.20579 -0.96463,-0.48231 0,-0.96462 3.85851,-0.24116 6.51123,1.20578 1.92925,0.72347 1.92925,1.6881 0,0.72347 -0.72347,0.96462 -0.72347,0.24116 -0.72347,2.17041 0,9.64627 0,18.56906 0.24116,3.85851 -1.44694,3.85851 -0.72347,0 -1.44694,-1.20578 -0.96462,-1.44694 -0.72347,-2.17041 0.24116,-1.6881 0.48232,-4.09967 0,-7.47585 0,-16.15749 z m 20.73947,14.95171 q 0.24115,20.25716 -24.59798,28.21533 -1.44694,-0.48232 -0.24116,-1.44694 21.94526,-8.68164 21.7041,-26.76839 0,-9.40511 0,-16.88096 -0.24115,-1.92926 -0.96462,-2.89388 -0.72347,-0.96463 -3.13504,-1.20579 -0.48231,-0.48231 0.24116,-0.72347 3.8585,-0.48231 6.99354,0.96463 2.17041,0.96463 2.17041,1.6881 0,1.20578 -2.17041,2.41156 0,8.19933 0,16.63981 z"
         style="font-style:normal;font-variant:normal;font-weight:normal;font-stretch:normal;font-size:61.7361px;font-family:'MS Mincho';-inkscape-font-specification:'MS Mincho';fill:#7d7d7d;fill-opacity:1;stroke-width:0.264583;stroke:none;stroke-opacity:1"
         id="path2727" />
      <path
         d="m 195.04425,104.88416 q 1.66743,-0.15158 3.48644,1.21267 1.9706,1.51585 1.9706,2.42535 0,0.45476 -0.75792,0.45476 -0.75792,0 -1.21268,1.06109 -6.51812,16.82586 -23.04082,22.58607 -0.90951,-0.15158 -0.15158,-0.75792 15.4616,-6.21496 21.22181,-23.64716 0.45475,-0.90951 0,-1.66743 -0.45476,-0.75792 -1.51585,-1.06109 -0.60633,-0.30317 0,-0.60634 z m -18.34171,2.42535 q 3.18328,1.21267 4.54754,2.8801 2.12218,2.57694 2.12218,3.78961 0,1.81901 -1.06109,1.81901 -0.90951,0 -1.51585,-2.12218 -0.9095,-3.18327 -4.39594,-5.91179 -0.45476,-0.30317 0.30316,-0.45475 z"
         style="font-style:normal;font-variant:normal;font-weight:normal;font-stretch:normal;font-size:38.8056px;font-family:'MS Mincho';-inkscape-font-specification:'MS Mincho';fill:#7d7d7d;fill-opacity:1"
         id="path2729" />
      <path
         d="m 230.34105,112.46338 q -4.8507,16.21953 -20.00914,23.19241 -1.06109,0.15158 -0.45475,-0.60634 14.24893,-8.18556 18.19012,-23.19241 0.45475,-0.90951 -0.30317,-1.06109 -8.94348,0.45475 -17.73537,1.36426 0,4.54753 0,8.94348 0.30317,2.57693 -0.45475,2.57693 -0.60634,0 -1.06109,-0.60634 -0.90951,-0.60633 -0.45476,-2.8801 0,-3.18327 0,-7.12446 0,-1.51585 -0.30317,-2.27377 -0.15158,-0.45475 -0.9095,-0.75792 -1.36426,-0.45476 0.45475,-0.75792 1.51585,0 2.72852,1.36426 3.94119,-0.30317 7.7308,-0.60634 0,-1.81901 0,-4.39595 0,-1.06109 -0.30317,-1.51584 -0.45475,-0.60634 -1.51584,-0.75792 -1.21267,-0.15159 -0.30317,-0.75793 2.57694,-0.45475 4.8507,0.90951 0.45475,0.30317 0.45475,0.75792 0,0.30317 -0.75792,0.45476 -0.60633,0.30316 -0.60633,1.81901 0,1.81901 0,3.33485 4.24436,-0.15158 8.18555,-0.30317 0.60634,-0.30316 1.36426,-1.06109 1.36426,1.21268 2.27377,2.12219 0.75792,0.60633 0.75792,1.06109 0,0.30316 -1.06109,0.15158 -0.45476,0 -0.75792,0.60634 z"
         style="font-style:normal;font-variant:normal;font-weight:normal;font-stretch:normal;font-size:38.8056px;font-family:'MS Mincho';-inkscape-font-specification:'MS Mincho';stroke:none;stroke-opacity:1;fill:#7d7d7d;fill-opacity:1"
         id="path2731" />
      <g
         id="g3785"
         transform="matrix(1.3766881,0,0,1.2168574,-181.96635,-121.82702)"
         style="fill:none;fill-opacity:1;stroke:#000000;stroke-width:0.26423387;stroke-miterlimit:4;stroke-dasharray:none;stroke-opacity:1;fill-rule:evenodd">
        <path
           style="font-size:10.5833px;line-height:1.25;font-family:sans-serif;letter-spacing:0px;display:inline;fill:none;fill-opacity:1;stroke:none;stroke-width:0.26423387;stroke-linecap:butt;stroke-linejoin:miter;stroke-miterlimit:4;stroke-dasharray:none;stroke-opacity:1;fill-rule:evenodd"
           d="m 315.52356,186.09606 c 0.10239,6.57074 -1.5557,13.16075 -4.75552,18.90064 -3.19982,5.73988 -7.93342,10.61538 -13.57632,13.98329 -7.38153,4.4056 -16.03417,6.15093 -24.56846,7.18155 -11.09029,1.33929 -22.31142,1.59287 -33.45089,0.75595"
           id="path3255-9"
           inkscape:path-effect="#path-effect3757"
           inkscape:original-d="m 315.52356,186.09606 c -6.11035,10.96157 -12.22096,21.92288 -18.33184,32.88393 -6.11088,10.96104 -16.37871,4.78796 -24.56846,7.18155 -8.18975,2.39358 -22.30033,0.50423 -33.45089,0.75595" />
        <path
           style="fill:none;fill-opacity:1;stroke:none;stroke-width:0.26423387;stroke-linecap:butt;stroke-linejoin:miter;stroke-miterlimit:4;stroke-dasharray:none;stroke-opacity:1;fill-rule:evenodd"
           d="m 315.52356,186.09606 2.07092,-1.69093 -4.86643,-0.0945"
           id="path3761" />
        <path
           style="font-size:10.5833px;line-height:1.25;font-family:sans-serif;letter-spacing:0px;display:inline;fill:none;fill-opacity:1;stroke:none;stroke-width:0.26423387;stroke-linecap:butt;stroke-linejoin:miter;stroke-miterlimit:4;stroke-dasharray:none;stroke-opacity:1;fill-rule:evenodd"
           d="m 312.72805,184.31063 c 0.1486,6.57811 -1.48989,13.18799 -4.69373,18.93508 -3.20384,5.7471 -7.96464,10.61637 -13.63811,13.94885 -7.40635,4.35034 -16.06069,5.99946 -24.56846,7.18155 -10.16114,1.41181 -20.40047,2.26067 -30.65538,2.54138"
           id="path3255-0"
           inkscape:path-effect="#path-effect3780"
           inkscape:original-d="m 312.72805,184.31063 c -6.11035,10.96157 -12.22096,21.92288 -18.33184,32.88393 -6.11088,10.96104 -16.37871,4.78796 -24.56846,7.18155 -8.18975,2.39358 -19.50482,2.28966 -30.65538,2.54138"
           sodipodi:nodetypes="cssc" />
        <path
           style="fill:#000000;fill-opacity:0;fill-rule:nonzero;stroke:none;stroke-width:1.30572;stroke-miterlimit:4;stroke-dasharray:none;stroke-opacity:1"
           d="m 595.65101,583.57586 c -3.6021,-0.71584 -3.24369,-0.81854 3.30255,-0.94633 25.24383,-0.49279 98.3011,-7.18782 134.58327,-12.33333 67.17158,-9.52624 107.62121,-23.90671 141.36891,-50.25882 30.26337,-23.63136 51.99096,-56.02135 60.6511,-90.41448 3.07096,-12.19605 5.05389,-26.0251 5.05841,-35.27763 l 0.003,-5.80838 h 10.10153 c 5.55584,0 10.10152,0.16688 10.10152,0.37084 0,0.20397 -1.74654,1.52665 -3.8812,2.9393 l -3.88119,2.56845 -0.62106,11.58862 c -3.15813,58.92993 -40.76292,112.71876 -99.19779,141.88969 -38.0384,18.98893 -89.29642,29.46073 -169.20055,34.56698 -21.56931,1.37837 -83.15401,2.15532 -88.38835,1.11509 z"
           id="path3795"
           transform="matrix(0.19218829,0,0,0.21743167,132.17689,100.1161)" />
        <path
           style="fill:#000000;fill-opacity:0;fill-rule:nonzero;stroke:none;stroke-width:1.30572;stroke-miterlimit:4;stroke-dasharray:none;stroke-opacity:1"
           d=""
           id="path3797"
           transform="matrix(0.19218829,0,0,0.21743167,132.17689,100.1161)" />
        <path
           style="fill:#7d7d7d;fill-opacity:0.98823529;fill-rule:nonzero;stroke:none;stroke-width:1.30572;stroke-miterlimit:4;stroke-dasharray:none;stroke-opacity:1"
           d=""
           id="path3799"
           transform="matrix(0.19218829,0,0,0.21743167,132.17689,100.1161)" />
        <path
           style="fill:#7d7d7d;fill-opacity:0.988235;fill-rule:nonzero;stroke:none;stroke-width:0.266916;stroke-miterlimit:4;stroke-dasharray:none;stroke-opacity:1"
           d="m 241.40498,224.83092 c -0.69228,-0.15565 -0.6234,-0.17798 0.63471,-0.20576 4.85157,-0.10715 18.89232,-1.56286 25.86533,-2.68166 12.90959,-2.0713 20.68354,-5.19807 27.16945,-10.92786 5.81626,-5.1382 9.99205,-12.18081 11.65643,-19.65897 0.5902,-2.65181 0.9713,-5.65868 0.97217,-7.67047 l 5.7e-4,-1.26293 h 1.9414 c 1.06777,0 5.78516,-0.11901 3.21121,0.19708 -0.0389,0.005 -1.01537,0.22331 -1.46663,0.44497 l -1.29503,0.63611 -0.11936,2.51974 c -0.60695,12.81323 -7.83415,24.50862 -19.06465,30.85131 -7.31054,4.12879 -17.16173,6.40569 -32.51837,7.51595 -4.14536,0.29971 -15.98122,0.46864 -16.9872,0.24246 z"
           id="path3801"
           sodipodi:nodetypes="sssssscssscsssss" />
      </g>
    </g>
    <g
       aria-label="界世"
       transform="rotate(-179.18116)"
       id="text2527"
       style="font-size:10.5833px;line-height:1.25;font-family:sans-serif;letter-spacing:0px;fill:#7d7d7d;fill-opacity:1;stroke-width:0.264583">
      <path
         d="m -303.91417,-123.98357 h -3.8654 v -1.59164 h -10.4593 q 7.04866,7.27604 21.82811,10.91406 l -1.81901,5.00228 q -9.32242,-2.50114 -14.32469,-6.13916 v 18.872223 h -4.54753 v -19.781723 h 3.18327 q -4.09277,-2.27377 -8.86767,-7.73079 -3.41065,4.32014 -7.95817,7.50341 h 2.95589 q 1.81901,0.22738 0.22738,1.36426 v 7.04866 q 0,5.00227 -2.72852,7.27604 -4.32014,3.638015 -13.86994,4.774896 l -2.04639,-4.547526 q 8.86767,-0.68213 12.27831,-3.41064 1.81901,-1.36426 1.81901,-5.00228 v -6.36653 q -5.91178,4.32015 -15.46158,6.59391 l -2.04638,-5.00228 q 15.46158,-3.18326 22.28286,-11.36881 h -10.4593 v 2.50114 h -3.8654 v -23.64712 h 37.74445 z m -3.8654,-13.86995 v -5.22965 h -13.18781 v 5.22965 z m -17.05321,0 v -5.22965 h -12.96044 v 5.22965 z m 0,3.63802 h -12.96044 v 5.00228 h 12.96044 z m 17.05321,5.00228 v -5.00228 h -13.18781 v 5.00228 z"
         style="font-size:58.2083px;fill:#7d7d7d;fill-opacity:1;stroke-width:0.264583"
         id="path3803" />
      <path
         d="m -235.25148,-106.68773 0.0999,5.37886 -49.62432,0.29029 v 3.865397 l -4.54753,0 v -31.605287 h -8.41291 v -5.00228 l 8.41291,0 v -12.73306 h 4.32015 c 1.21267,0.15158 1.28847,0.60633 0.22738,1.36425 v 11.36881 h 9.77717 l 0,-14.09732 4.32015,0 c 1.21267,0.15159 1.28847,0.60634 0.22738,1.36426 v 12.73306 h 11.14143 l 0,-13.18782 4.32015,0 c 1.21267,0.15159 1.28846,0.60634 0.22737,1.36426 l 0,11.82356 h 8.41292 l 0,5.00228 -8.41292,0 v 17.05321 h -4.54752 v -2.72851 h -11.14143 l 0,3.86539 -4.54753,0 v -18.19009 h -9.77717 l 0,22.73762 z m -24.0583,-12.06619 0,-10.00455 h -11.14143 l 0,10.00455 z"
         style="font-size:58.2083px;fill:#7d7d7d;fill-opacity:1;stroke-width:0.264583"
         id="path3805"
         sodipodi:nodetypes="ccccccccccccccccccccccccccccccccccccccccc" />
    </g>
    <text
       xml:space="preserve"
       id="text990"
       style="fill:black;fill-opacity:1;line-height:1.25;stroke:none;font-family:sans-serif;font-style:normal;font-weight:normal;font-size:10.58333333px;white-space:pre;shape-inside:url(#rect992);" />
    <text
       xml:space="preserve"
       style="font-style:normal;font-weight:normal;font-size:10.5833px;line-height:1.25;font-family:sans-serif;fill:#000000;fill-opacity:1;stroke:none;stroke-width:0.264583"
       x="202.5903"
       y="206.0648"
       id="text998"><tspan
         sodipodi:role="line"
         id="tspan996"
         x="202.5903"
         y="206.0648"
         style="stroke-width:0.264583" /></text>
  </g>
</svg>
